<?xml version="1.0" encoding="UTF-8"?>
<!DOCTYPE svg PUBLIC "-//W3C//DTD SVG 1.0//EN" "http://www.w3.org/TR/2001/REC-SVG-20010904/DTD/svg10.dtd">
<!-- Creator: CorelDRAW X6 -->
<svg xmlns="http://www.w3.org/2000/svg" xml:space="preserve" width="238px" height="168px" version="1.0" style="shape-rendering:geometricPrecision; text-rendering:geometricPrecision; image-rendering:optimizeQuality; fill-rule:evenodd; clip-rule:evenodd"
viewBox="0 0 238 168"
 xmlns:xlink="http://www.w3.org/1999/xlink">
 <defs>
  <style type="text/css">
   <![CDATA[
    .str0 {stroke:#F36C36;stroke-width:0.160269}
    .fil0 {fill:#F36C36}
   ]]>
  </style>
 </defs>
 <g id="Camada_x0020_1">
  <metadata id="CorelCorpID_0Corel-Layer"/>
  <path class="fil0 str0" d="M63 43l4 0 8 0c13,1 16,26 0,31l0 1 15 30 -6 0 -14 -30 -2 0 0 30 -5 0 0 -61zm12 3l-8 0 0 25c3,0 5,0 8,-1 10,-4 8,-24 0,-24z"/>
  <path class="fil0 str0" d="M107 29c11,-11 24,-10 35,-3l-1 7c-10,-12 -23,-11 -31,0 -9,9 -17,54 -2,80 6,11 22,16 32,3l2 6c-13,9 -25,7 -35,-4 -13,-13 -22,-63 1,-88z"/>
  <path class="fil0 str0" d="M136 52c-6,-9 -14,-10 -19,-1 -6,9 -9,34 1,47 7,6 13,5 18,-4l1 7c-7,5 -15,6 -22,-1 -10,-11 -12,-39 0,-54 7,-6 15,-6 22,-1l-2 6z"/>
  <path class="fil0 str0" d="M160 42c12,2 17,10 19,30 0,20 -7,32 -19,33 -10,-1 -19,-10 -19,-32 1,-21 8,-30 19,-30zm0 2c9,1 14,10 14,28 0,14 -5,29 -14,29 -8,-1 -15,-12 -14,-30 0,-18 5,-28 14,-28z"/>
 </g>
</svg>
