<?xml version="1.0" encoding="UTF-8"?>
<!DOCTYPE svg PUBLIC "-//W3C//DTD SVG 1.0//EN" "http://www.w3.org/TR/2001/REC-SVG-20010904/DTD/svg10.dtd">
<!-- Creator: CorelDRAW X6 -->
<svg xmlns="http://www.w3.org/2000/svg" xml:space="preserve" width="707px" height="500px" version="1.0" style="shape-rendering:geometricPrecision; text-rendering:geometricPrecision; image-rendering:optimizeQuality; fill-rule:evenodd; clip-rule:evenodd"
viewBox="0 0 707 500"
 xmlns:xlink="http://www.w3.org/1999/xlink">
 <defs>
  <style type="text/css">
   <![CDATA[
    .str0 {stroke:#F36C36;stroke-width:0.476094}
    .fil0 {fill:#F36C36}
   ]]>
  </style>
 </defs>
 <g id="Camada_x0020_1">
  <metadata id="CorelCorpID_0Corel-Layer"/>
  <path class="fil0 str0" d="M186 127l13 0 24 0c40,2 47,76 0,91l0 2 43 90 -17 0 -43 -89 -7 0 0 89 -14 0 0 -182zm37 9l-24 0 0 75c8,0 16,0 22,-2 29,-10 24,-72 1,-73z"/>
  <path class="fil0 str0" d="M317 86c34,-33 70,-30 103,-10l-3 20c-29,-36 -69,-32 -92,0 -28,26 -50,161 -5,238 18,32 66,49 96,8l5 18c-39,25 -74,20 -105,-12 -40,-38 -66,-187 2,-262z"/>
  <path class="fil0 str0" d="M403 155c-17,-26 -43,-31 -57,-4 -19,26 -26,101 3,140 20,18 38,14 54,-11l4 20c-21,15 -43,16 -67,-2 -28,-34 -37,-116 0,-160 22,-19 44,-18 66,-2l-5 18z"/>
  <path class="fil0 str0" d="M475 125c36,6 51,30 56,88 0,58 -20,96 -56,97 -30,-2 -56,-29 -57,-95 3,-62 24,-90 57,-90zm0 7c27,3 42,31 41,84 1,42 -16,85 -42,87 -24,-3 -43,-36 -41,-89 0,-54 14,-83 42,-82z"/>
 </g>
</svg>
